<svg width="1440" height="320" xmlns="http://www.w3.org/2000/svg">

 <g>
  <title>background</title>
  <rect fill="#f7f7f7" id="canvas_background" height="322" width="1442" y="-1" x="-1"/>
 </g>
 <g>
  <title>Layer 1</title>
  <path id="svg_1" d="m0,160l26.7,-10.7c26.6,-10.3 80.3,-32.3 133.3,-26.6c53.3,5.3 107,37.3 160,26.6c53.3,-10.3 107,-64.3 160,-48c53.3,15.7 107,101.7 160,128c53.3,26.7 107,-5.3 160,-32c53.3,-26.3 107,-48.3 160,-53.3c53.3,-5 107,5 160,0c53.3,-5 107,-27 160,-37.3c53.3,-10.7 107,-10.7 133,-10.7l27,0l0,-96l-26.7,0c-26.6,0 -80.3,0 -133.3,0c-53.3,0 -107,0 -160,0c-53.3,0 -107,0 -160,0c-53.3,0 -107,0 -160,0c-53.3,0 -107,0 -160,0c-53.3,0 -107,0 -160,0c-53.3,0 -107,0 -160,0c-53.3,0 -107,0 -160,0c-53.3,0 -107,0 -133,0l-27,0l0,160z" fill="#2179f2"/>
 </g>
</svg>